HIERARCHY
ROOT Character1_Hips
{
  OFFSET -32.577 102.068 -114.726
  CHANNELS 6 Xposition Yposition Zposition Zrotation Xrotation Yrotation
  JOINT Character1_Spine
  {
    OFFSET 0 8.754 -1.339
    CHANNELS 3 Zrotation Xrotation Yrotation
    JOINT Character1_Spine1
    {
      OFFSET 0 10.855 -0.645
      CHANNELS 3 Zrotation Xrotation Yrotation
      JOINT Character1_LeftShoulder
      {
        OFFSET 1.467 27.745 1.178
        CHANNELS 3 Zrotation Xrotation Yrotation
        JOINT Character1_LeftArm
        {
          OFFSET 18.486 -1.858 0.275
          CHANNELS 3 Zrotation Xrotation Yrotation
          JOINT Character1_LeftForeArm
          {
            OFFSET 31.798 2.36 2.921
            CHANNELS 3 Zrotation Xrotation Yrotation
            JOINT Character1_LeftHand
            {
              OFFSET 29.001 1.642 2.112
              CHANNELS 3 Zrotation Xrotation Yrotation
              End Site
              {
                OFFSET 0.269758 0.141128 0.89614
              }
            }
            JOINT L_Radius_RIGMESH
            {
              OFFSET 0.592911 0.209926 -0.435177
              CHANNELS 3 Zrotation Xrotation Yrotation
              End Site
              {
                OFFSET 0 0 0
              }
            }
          }
          JOINT L_Humerus_RIGMESH
          {
            OFFSET 0.000383861 -0.000257932 -6.47351e-005
            CHANNELS 3 Zrotation Xrotation Yrotation
            End Site
            {
              OFFSET 0 0 0
            }
          }
        }
        JOINT L_Shoulder_RIGMESH
        {
          OFFSET 3.24498e-005 -0.000608592 -0.000527677
          CHANNELS 3 Zrotation Xrotation Yrotation
          End Site
          {
            OFFSET 0 0 0
          }
        }
      }
      JOINT Character1_RightShoulder
      {
        OFFSET -1.467 27.745 1.178
        CHANNELS 3 Zrotation Xrotation Yrotation
        JOINT Character1_RightArm
        {
          OFFSET -18.486 -1.858 0.275
          CHANNELS 3 Zrotation Xrotation Yrotation
          JOINT Character1_RightForeArm
          {
            OFFSET -31.798 2.35964 2.92082
            CHANNELS 3 Zrotation Xrotation Yrotation
            JOINT Character1_RightHand
            {
              OFFSET -29.0007 1.64167 2.112
              CHANNELS 3 Zrotation Xrotation Yrotation
              End Site
              {
                OFFSET 161.773 0.141827 0.896322
              }
            }
            JOINT R_Radius_RIGMESH
            {
              OFFSET 104.095 0.21029 -0.434995
              CHANNELS 3 Zrotation Xrotation Yrotation
              End Site
              {
                OFFSET 0 0 0
              }
            }
          }
          JOINT R_Humerus_RIGMESH
          {
            OFFSET 39.9064 -0.000257932 -6.47351e-005
            CHANNELS 3 Zrotation Xrotation Yrotation
            End Site
            {
              OFFSET 0 0 0
            }
          }
        }
        JOINT R_Shoulder_RIGMESH
        {
          OFFSET -3.24498e-005 -0.000608592 -0.000527677
          CHANNELS 3 Zrotation Xrotation Yrotation
          End Site
          {
            OFFSET 0 0 0
          }
        }
      }
      JOINT Character1_Neck
      {
        OFFSET 0 30.836 0.626
        CHANNELS 3 Zrotation Xrotation Yrotation
        JOINT Character1_Head
        {
          OFFSET 0 8.074 3.498
          CHANNELS 3 Zrotation Xrotation Yrotation
          End Site
          {
            OFFSET 0 -0.00153379 1.54668e-005
          }
        }
        JOINT Neck_RIGMESH
        {
          OFFSET -0.124055 0.00785685 1.28337
          CHANNELS 3 Zrotation Xrotation Yrotation
          End Site
          {
            OFFSET 0 0 0
          }
        }
      }
      JOINT Torso_RIGMESH
      {
        OFFSET 0 -0.000828813 -0.000380861
        CHANNELS 3 Zrotation Xrotation Yrotation
        End Site
        {
          OFFSET 0 0 0
        }
      }
    }
    JOINT Spine_RIGMESH
    {
      OFFSET 0.00325007 -0.0391337 -0.174576
      CHANNELS 3 Zrotation Xrotation Yrotation
      End Site
      {
        OFFSET 0 0 0
      }
    }
  }
  JOINT Character1_RightUpLeg
  {
    OFFSET -9.035 -4.63425 1.845
    CHANNELS 3 Zrotation Xrotation Yrotation
    JOINT Character1_RightLeg
    {
      OFFSET -0.919521 -40.345 1.155
      CHANNELS 3 Zrotation Xrotation Yrotation
      JOINT Character1_RightFoot
      {
        OFFSET 1.95452 -45.2655 -4.18888
        CHANNELS 3 Zrotation Xrotation Yrotation
        JOINT Character1_RightToeBase
        {
          OFFSET 1.87056 -6.69517 14.7145
          CHANNELS 3 Zrotation Xrotation Yrotation
          End Site
          {
            OFFSET 0 0 0
          }
        }
        JOINT R_Talus_RIGMESH
        {
          OFFSET 8 -7.75529 4.18888
          CHANNELS 3 Zrotation Xrotation Yrotation
          End Site
          {
            OFFSET 0 0 0
          }
        }
      }
      JOINT R_Tibia_RIGMESH
      {
        OFFSET 0 0 0
        CHANNELS 3 Zrotation Xrotation Yrotation
        End Site
        {
          OFFSET 0 0 0
        }
      }
    }
    JOINT R_Femur_RIGMESH
    {
      OFFSET 0 0 0
      CHANNELS 3 Zrotation Xrotation Yrotation
      End Site
      {
        OFFSET 0 0 0
      }
    }
  }
  JOINT Character1_LeftUpLeg
  {
    OFFSET 9.035 -4.63425 1.845
    CHANNELS 3 Zrotation Xrotation Yrotation
    JOINT Character1_LeftLeg
    {
      OFFSET 0.919521 -40.345 1.155
      CHANNELS 3 Zrotation Xrotation Yrotation
      JOINT Character1_LeftFoot
      {
        OFFSET -1.95452 -45.2655 -4.18888
        CHANNELS 3 Zrotation Xrotation Yrotation
        JOINT Character1_LeftToeBase
        {
          OFFSET -1.87056 -6.69517 14.7145
          CHANNELS 3 Zrotation Xrotation Yrotation
          End Site
          {
            OFFSET 0 0 0
          }
        }
        JOINT L_Talus_RIGMESH
        {
          OFFSET -8 -7.75529 4.18888
          CHANNELS 3 Zrotation Xrotation Yrotation
          End Site
          {
            OFFSET 0 0 0
          }
        }
      }
      JOINT L_Tibia_RIGMESH
      {
        OFFSET 0 0 0
        CHANNELS 3 Zrotation Xrotation Yrotation
        End Site
        {
          OFFSET 0 0 0
        }
      }
    }
    JOINT L_Femur_RIGMESH
    {
      OFFSET 0 0 0
      CHANNELS 3 Zrotation Xrotation Yrotation
      End Site
      {
        OFFSET 0 0 0
      }
    }
  }
  JOINT Pelvis_RIGMESH
  {
    OFFSET 0 0 0
    CHANNELS 3 Zrotation Xrotation Yrotation
    End Site
    {
      OFFSET 0 0 0
    }
  }
}
MOTION
Frames:	10
Frame Time:	0.00833333
-34.8385 104.008 -171.098 -5.4588 0.335213 -5.65755 1.0871e-015 -1.49089e-016 7.95139e-016 9.62696 6.97754 1.64102 -6.20396 1.89038 -5.54426 -72.137 26.907 5.92943 0.128155 -0.0658056 -23.1306 -1.32462 12.2211 2.32548 7.95139e-016 -3.18055e-015 -0 -7.95139e-016 0 -1.59028e-015 -1.98785e-016 -4.77083e-015 1.59028e-015 2.67889 1.26403 9.55005 69.7806 18.4443 -3.91589 -0.496618 -0.146113 12.1883 3.48949 22.1657 -3.93133 -7.95139e-016 -1.27222e-014 -1.19271e-015 2.38542e-015 0 -3.18055e-015 5.96354e-016 1.59028e-015 7.95139e-016 -3.97569e-016 -7.95139e-016 -0 1.98611 -9.8635 5.79795 -0.581329 -11.3563 1.09814 -3.97569e-016 -7.95139e-016 -0 3.20211 2.29254 0.66839 7.09186 -8.96084 -3.24713 -1.39726 3.12082 -0.0962202 3.30342 9.02682 -1.427 0.0873637 -3.1554 -0.00417467 -5.96354e-016 0 -0 -2.20695e-032 -7.95139e-016 -1.59028e-015 7.95139e-016 1.59028e-015 1.59028e-015 14.9177 -19.7788 14.3284 -0.333556 57.3526 0.539302 -6.8131 29.3898 4.74675 -0.199343 -6.94422 -0.0122396 1.59028e-015 0 -0 3.18055e-015 6.36111e-015 -7.95139e-016 7.95139e-016 3.18055e-015 -0 1.0871e-015 -1.49089e-016 7.95139e-016 
-34.8896 104.162 -170.123 -5.4514 0.31639 -6.02431 3.10601e-017 0 -0 9.504 7.08011 2.11078 -6.28621 2.00186 -5.41665 -72.3343 27.2034 6.2362 0.12835 -0.066276 -23.014 -1.42155 12.4283 2.38986 7.95139e-016 -3.18055e-015 7.95139e-016 5.56597e-015 -6.36111e-015 6.36111e-015 1.98785e-016 0 -0 2.51053 1.13124 9.66128 69.5873 18.3926 -3.74294 -0.493986 -0.150418 12.7417 3.15623 22.1382 -3.70139 1.98785e-016 0 3.97569e-016 -1.59028e-015 3.18055e-015 3.18055e-015 -1.59028e-015 1.59028e-015 -1.59028e-015 3.47873e-016 0 -7.95139e-016 2.00757 -9.90999 5.75582 -0.589161 -11.3254 1.09257 3.47873e-016 0 -7.95139e-016 3.16611 2.31785 0.830013 7.13207 -7.81098 -3.10557 -1.42189 2.20525 -0.141751 3.28518 9.19391 -1.2098 0.0855023 -3.08089 -0.00493322 -4.96962e-016 0 3.18055e-015 -1.98785e-016 -1.59028e-015 1.59028e-015 3.97569e-016 0 -3.18055e-015 15.1669 -20.7485 14.7036 -0.338449 57.7072 0.51555 -6.88347 28.0267 4.16255 -0.199224 -6.86976 -0.0122011 -4.77083e-015 6.36111e-015 7.95139e-016 7.95139e-016 0 -1.59028e-015 0 0 -0 3.10601e-017 0 -0 
-34.9409 104.31 -169.149 -5.44446 0.297496 -6.39107 7.70291e-016 -1.98785e-016 3.18055e-015 9.38083 7.17995 2.5814 -6.36899 2.11335 -5.28905 -72.524 27.4956 6.54382 0.127426 -0.0662168 -22.9043 -1.51872 12.6359 2.45424 7.95139e-016 0 7.95139e-016 7.95139e-016 -3.18055e-015 -0 -0 0 1.59028e-015 2.34263 0.998499 9.77254 69.3853 18.337 -3.58585 -0.487343 -0.15448 13.3942 2.82312 22.1138 -3.47187 1.98785e-015 -6.36111e-015 7.95139e-016 3.97569e-015 0 7.95139e-016 1.2921e-015 -7.95139e-016 7.95139e-016 5.46658e-016 -7.95139e-016 7.95139e-016 2.02925 -9.95478 5.71352 -0.609618 -11.2875 1.09241 5.46658e-016 -7.95139e-016 7.95139e-016 3.1256 2.34296 0.986945 7.16626 -6.68356 -2.96492 -1.44049 1.33069 -0.186647 3.266 9.3192 -0.991032 0.0837621 -3.00639 -0.00556191 1.2921e-015 0 -0 -8.82781e-032 -1.59028e-015 -3.18055e-015 3.97569e-016 0 1.59028e-015 15.4195 -21.725 15.0803 -0.343681 58.076 0.489601 -6.96041 26.6258 3.57748 -0.199211 -6.79525 -0.012183 1.59028e-015 3.18055e-015 -1.59028e-015 -7.95139e-016 0 7.95139e-016 7.95139e-016 -6.36111e-015 2.38542e-015 7.70291e-016 -1.98785e-016 3.18055e-015 
-34.9923 104.454 -168.176 -5.43799 0.278531 -6.75784 -8.75895e-016 1.98785e-016 -1.59028e-015 9.25736 7.27702 3.05291 -6.4522 2.22491 -5.16143 -72.7064 27.7839 6.85222 0.126099 -0.0657244 -22.8013 -1.6162 12.8436 2.51865 1.59028e-015 -1.27222e-014 1.59028e-015 -7.95139e-016 -9.54166e-015 4.77083e-015 -3.97569e-016 3.18055e-015 -0 2.17532 0.86588 9.88386 69.1751 18.2777 -3.44369 -0.477482 -0.158249 14.1404 2.4901 22.0923 -3.24273 -5.1684e-015 6.36111e-015 -7.95139e-016 -4.77083e-015 -3.18055e-015 -7.95139e-016 1.39149e-015 -7.95139e-016 7.95139e-016 3.47873e-016 7.95139e-016 -0 2.051 -9.99943 5.67118 -0.638534 -11.2517 1.0939 3.47873e-016 7.95139e-016 -0 3.08858 2.36832 1.13367 7.19489 -5.57327 -2.82497 -1.45303 0.490485 -0.230799 3.24598 9.40495 -0.77083 0.0820686 -2.93188 -0.00609319 -0 0 3.18055e-015 0 7.95139e-016 -0 -3.97569e-016 0 -0 15.6752 -22.708 15.4586 -0.349128 58.4577 0.461654 -7.04466 25.1899 2.99159 -0.199279 -6.72074 -0.0121814 3.18055e-015 0 -1.59028e-015 7.95139e-016 -1.27222e-014 7.95139e-016 -3.97569e-016 0 -1.59028e-015 -8.75895e-016 1.98785e-016 -1.59028e-015 
-35.037 104.549 -167.211 -5.45521 0.258039 -7.06818 1.3418e-015 -4.96962e-017 -1.59028e-015 9.14727 7.37539 3.42191 -6.54059 2.34214 -5.03367 -72.8409 27.9211 7.17588 0.124992 -0.0648579 -22.7847 -1.68006 12.7135 2.56847 -0 -9.54166e-015 -0 -3.18055e-015 -9.54166e-015 -0 0 0 -0 1.99966 0.700853 9.98838 68.9958 18.1396 -3.32727 -0.464238 -0.161551 14.9657 2.23623 22.0723 -3.06706 0 0 -7.95139e-016 -3.97569e-016 0 -2.38542e-015 2.98177e-016 0 1.59028e-015 6.4605e-016 0 -0 2.01408 -10.0481 5.65494 -0.677558 -11.2177 1.09806 6.4605e-016 0 -0 3.0552 2.39342 1.26946 7.21532 -4.4467 -2.73517 -1.46038 -0.399264 -0.270205 3.16629 9.49238 -0.558832 0.0804109 -2.8775 -0.00657594 -9.93923e-016 0 -0 -5.96354e-016 7.95139e-016 -3.18055e-015 0 0 -0 15.8638 -23.4098 15.7379 -0.339557 57.9935 0.420084 -7.08456 24.1112 2.33744 -0.199437 -6.79282 -0.012196 -3.18055e-015 -6.36111e-015 -1.59028e-015 -1.32417e-031 9.54166e-015 7.95139e-016 3.97569e-016 0 -2.38542e-015 1.3418e-015 -4.96962e-017 -1.59028e-015 
-35.0817 104.639 -166.248 -5.47282 0.23774 -7.37851 1.10574e-015 0 -0 9.03672 7.47142 3.7915 -6.62931 2.45952 -4.90581 -72.9673 28.0549 7.49968 0.123511 -0.0637541 -22.774 -1.7436 12.5835 2.61821 3.97569e-016 3.18055e-015 -7.95139e-016 4.77083e-015 0 3.18055e-015 5.96354e-016 -3.18055e-015 3.18055e-015 1.82479 0.536062 10.093 68.8102 17.9981 -3.22396 -0.447939 -0.163766 15.8743 1.98243 22.055 -2.89159 -3.97569e-016 3.18055e-015 7.95139e-016 2.78299e-015 3.18055e-015 -7.95139e-016 1.98785e-016 0 -2.38542e-015 1.98785e-016 0 -0 1.97755 -10.0954 5.63865 -0.728004 -11.1817 1.10622 1.98785e-016 0 -0 3.02189 2.41823 1.39702 7.23155 -3.32272 -2.64584 -1.46165 -1.28288 -0.309793 3.0858 9.55547 -0.345497 0.0787848 -2.82312 -0.00701242 -7.95139e-016 7.95139e-016 -0 -1.98785e-016 7.95139e-016 3.18055e-015 -0 -7.95139e-016 -0 16.055 -24.1218 16.0179 -0.33081 57.5438 0.377759 -7.13208 23.0021 1.68436 -0.199628 -6.86492 -0.0122194 -7.06225e-031 1.27222e-014 3.18055e-015 2.38542e-015 0 -7.95139e-016 7.95139e-016 6.36111e-015 7.95139e-016 1.10574e-015 0 -0 
-35.1266 104.726 -165.286 -5.49081 0.217645 -7.68881 -1.86361e-016 1.49089e-016 1.59028e-015 8.92597 7.56535 4.16183 -6.71863 2.57688 -4.778 -73.0863 28.1856 7.82369 0.121798 -0.0625109 -22.7687 -1.80687 12.4536 2.6678 1.19271e-015 9.54166e-015 -7.95139e-016 -1.59028e-015 0 6.36111e-015 -1.59028e-015 3.18055e-015 -1.59028e-015 1.65047 0.371317 10.1977 68.6189 17.8536 -3.13299 -0.428944 -0.164558 16.8612 1.72867 22.0403 -2.71641 2.38542e-015 3.18055e-015 3.18055e-015 3.18055e-015 3.18055e-015 1.59028e-015 -5.96354e-016 7.95139e-016 -0 -3.97569e-016 0 3.97569e-016 1.9408 -10.1433 5.62237 -0.785192 -11.1468 1.11506 -3.97569e-016 0 3.97569e-016 2.991 2.44397 1.51593 7.24473 -2.17806 -2.55652 -1.45714 -2.2095 -0.351959 3.00459 9.62106 -0.130548 0.0771843 -2.76874 -0.00740501 -5.96354e-016 -7.95139e-016 1.59028e-015 -9.93923e-017 0 -3.18055e-015 1.10348e-032 -3.97569e-016 1.59028e-015 16.2488 -24.8429 16.2989 -0.322848 57.1073 0.334707 -7.18768 21.8649 1.03221 -0.199828 -6.93698 -0.0122479 -1.59028e-015 -3.18055e-015 7.95139e-016 8.82781e-032 6.36111e-015 -7.95139e-016 1.19271e-015 0 -7.95139e-016 -1.86361e-016 1.49089e-016 1.59028e-015 
-35.1715 104.809 -164.326 -5.50917 0.197754 -7.99911 3.50979e-016 -4.96962e-017 -0 8.81498 7.65709 4.53285 -6.80848 2.69426 -4.65019 -73.1981 28.3134 8.14777 0.119996 -0.0612262 -22.7687 -1.86974 12.3238 2.7173 -1.19271e-015 -6.36111e-015 -0 0 0 -3.18055e-015 1.98785e-016 0 -7.95139e-016 1.47676 0.206661 10.3025 68.4227 17.7061 -3.0534 -0.407268 -0.164541 17.9211 1.47485 22.0279 -2.54149 -7.95139e-016 3.18055e-015 -0 2.38542e-015 -3.18055e-015 7.95139e-016 4.96962e-016 7.95139e-016 7.95139e-016 1.04362e-015 0 7.95139e-016 1.90417 -10.1904 5.60598 -0.844428 -11.116 1.12124 1.04362e-015 0 7.95139e-016 2.96489 2.47185 1.62581 7.24596 -1.20792 -2.46714 -1.44505 -2.80827 -0.379481 2.92319 9.51413 0.0827541 0.0756621 -2.71435 -0.00775605 -1.88845e-015 7.95139e-016 -3.18055e-015 3.97569e-016 -7.95139e-016 -1.59028e-015 6.95746e-016 0 3.18055e-015 16.4454 -25.5733 16.5808 -0.315608 56.6839 0.29101 -7.25186 20.702 0.38083 -0.200012 -7.00905 -0.0122774 -1.76556e-031 6.36111e-015 1.59028e-015 7.95139e-016 3.18055e-015 -0 -1.98785e-015 3.18055e-015 -0 3.50979e-016 -4.96962e-017 -0 
-35.2193 104.853 -163.363 -5.58501 0.168958 -8.21365 1.53437e-015 0 -0 8.75613 7.76928 4.79253 -6.951 2.81473 -4.52126 -73.1823 28.343 8.41763 0.117941 -0.0599852 -22.8024 -1.95681 11.8147 2.72601 2.20695e-032 -3.18055e-015 3.97569e-016 1.59028e-015 3.18055e-015 -1.59028e-015 7.95139e-016 -1.59028e-015 -0 1.37055 0.0695436 10.3906 68.149 17.5284 -2.97679 -0.382635 -0.163523 19.0551 1.25947 21.9325 -2.37183 3.97569e-015 -3.18055e-015 -1.59028e-015 2.38542e-015 6.36111e-015 -7.95139e-016 1.09332e-015 7.95139e-016 -7.95139e-016 -1.09332e-015 0 -3.97569e-016 1.85236 -10.2915 5.57168 -0.905816 -11.0891 1.12351 -1.09332e-015 0 -3.97569e-016 2.94386 2.50243 1.72582 7.27875 -0.519806 -2.38716 -1.42307 -2.84793 -0.372518 2.7643 9.10825 0.183081 0.0735921 -2.62629 -0.00806772 -9.93923e-017 7.95139e-016 1.59028e-015 -9.93923e-017 -7.95139e-016 -0 -4.96962e-017 -1.98785e-016 -1.59028e-015 16.5958 -25.9891 16.6895 -0.294295 55.5412 0.243199 -7.42884 19.3877 -0.169785 -0.200151 -7.05639 -0.0123037 -1.59028e-015 6.36111e-015 -7.95139e-016 -3.97569e-016 -3.18055e-015 7.95139e-016 0 0 -7.95139e-016 1.53437e-015 0 -0 
-35.2672 104.894 -162.404 -5.66113 0.140741 -8.42813 -3.04389e-016 -1.73937e-016 -0 8.69681 7.88016 5.05258 -7.094 2.93527 -4.39228 -73.1592 28.3704 8.68741 0.11553 -0.058899 -22.8404 -2.04254 11.3055 2.73375 -1.19271e-015 6.36111e-015 -3.97569e-016 -1.59028e-015 3.18055e-015 -4.77083e-015 -5.96354e-016 0 -0 1.26485 -0.0674492 10.4787 67.8719 17.3483 -2.90973 -0.355549 -0.161334 20.2516 1.04454 21.8392 -2.20247 -1.59028e-015 -9.54166e-015 -1.59028e-015 2.78299e-015 0 -1.59028e-015 -9.93923e-017 7.95139e-016 -7.95139e-016 -1.04362e-015 -1.59028e-015 3.97569e-016 1.80077 -10.3915 5.53734 -0.9714 -11.065 1.12377 -1.04362e-015 -1.59028e-015 3.97569e-016 2.92678 2.53501 1.81641 7.30831 0.160932 -2.30643 -1.39414 -2.88048 -0.366764 2.60482 8.68581 0.283247 0.0713146 -2.53822 -0.00834258 2.98177e-016 -7.95139e-016 -0 -1.98785e-016 0 -0 2.48481e-017 0 -3.18055e-015 16.7491 -26.4148 16.7993 -0.275119 54.409 0.196628 -7.61249 18.0573 -0.724151 -0.200225 -7.10376 -0.0123235 2.38542e-015 6.36111e-015 -7.95139e-016 -8.82781e-032 -3.18055e-015 -1.59028e-015 -3.97569e-016 3.18055e-015 -1.59028e-015 -3.04389e-016 -1.73937e-016 -0 
